<?xml version="1.0" encoding="iso-8859-1"?>
<!-- Generator: Adobe Illustrator 19.0.0, SVG Export Plug-In . SVG Version: 6.00 Build 0)  -->
<svg version="1.1" id="Capa_1" xmlns="http://www.w3.org/2000/svg" xmlnsXlink="http://www.w3.org/1999/xlink" x="0px" y="0px"
	 viewBox="0 0 384 384" style="enable-background:new 0 0 384 384;" xmlSpace="preserve">
<path style="fill:#4DD0E1;" d="M368,240v56H16v-56c26.48,0,48-21.52,48-48s-21.52-48-48-48V88h352v56c-26.48,0-48,21.52-48,48
	S341.52,240,368,240z"/>
<g>
	<path style="fill:#012E52;" d="M368,72H16C7.168,72,0,79.168,0,88v56c0,8.832,7.168,16,16,16c17.648,0,32,14.352,32,32
		s-14.352,32-32,32c-8.832,0-16,7.168-16,16v56c0,8.832,7.168,16,16,16h352c8.832,0,16-7.168,16-16v-56c0-8.832-7.168-16-16-16
		c-17.648,0-32-14.352-32-32s14.352-32,32-32c8.832,0,16-7.168,16-16V88C384,79.168,376.832,72,368,72z M352,130.104
		c-27.56,7.136-48,32.136-48,61.896s20.44,54.76,48,61.896V280H32v-26.104C59.56,246.76,80,221.76,80,192s-20.44-54.76-48-61.896
		V104h320V130.104z"/>
	<path style="fill:#012E52;" d="M240,160h16c8.832,0,16-7.168,16-16s-7.168-16-16-16h-16c-8.832,0-16,7.168-16,16
		S231.168,160,240,160z"/>
	<path style="fill:#012E52;" d="M240,256h16c8.832,0,16-7.168,16-16s-7.168-16-16-16h-16c-8.832,0-16,7.168-16,16
		S231.168,256,240,256z"/>
	<path style="fill:#012E52;" d="M240,208h16c8.832,0,16-7.168,16-16s-7.168-16-16-16h-16c-8.832,0-16,7.168-16,16
		S231.168,208,240,208z"/>
</g>
<g>
</g>
<g>
</g>
<g>
</g>
<g>
</g>
<g>
</g>
<g>
</g>
<g>
</g>
<g>
</g>
<g>
</g>
<g>
</g>
<g>
</g>
<g>
</g>
<g>
</g>
<g>
</g>
<g>
</g>
</svg>
