<?xml version="1.0" encoding="iso-8859-1"?>
<!-- Generator: Adobe Illustrator 19.0.0, SVG Export Plug-In . SVG Version: 6.00 Build 0)  -->
<svg version="1.1" id="Capa_1" xmlns="http://www.w3.org/2000/svg" xmlnsXlink="http://www.w3.org/1999/xlink" x="0px" y="0px"
	 viewBox="0 0 480 480" style="enable-background:new 0 0 480 480;" xmlSpace="preserve">
<g>
	<circle style="fill:#79ACC6;" cx="240" cy="56" r="48"/>
	<path style="fill:#79ACC6;" d="M152,168v32h176v-32c0-35.344-28.656-64-64-64h-24h-24C180.656,104,152,132.656,152,168z"/>
</g>
<g>
	<circle style="fill:#CE7DA5;" cx="96" cy="328" r="48"/>
	<path style="fill:#CE7DA5;" d="M184,440c0-35.344-28.656-64-64-64H96H72c-35.344,0-64,28.656-64,64v32h176V440z"/>
</g>
<g>
	<circle style="fill:#BEE5BF;" cx="384" cy="328" r="48"/>
	<path style="fill:#BEE5BF;" d="M408,376h-24h-24c-35.344,0-64,28.656-64,64v32h176v-32C472,404.656,443.344,376,408,376z"/>
</g>
<g>
	<path style="fill:#493657;" d="M144,168v32c0,4.424,3.584,8,8,8h176c4.416,0,8-3.576,8-8v-32c0-35.032-25.16-64.264-58.352-70.664
		C288.888,87.088,296,72.376,296,56c0-30.872-25.12-56-56-56s-56,25.128-56,56c0,16.376,7.112,31.088,18.352,41.336
		C169.16,103.736,144,132.968,144,168z M200,56c0-22.056,17.944-40,40-40s40,17.944,40,40s-17.944,40-40,40S200,78.056,200,56z
		 M216,112h48c30.88,0,56,25.128,56,56v24H160v-24C160,137.128,185.12,112,216,112z"/>
	<path style="fill:#493657;" d="M8,480h176c4.416,0,8-3.576,8-8v-32c0-35.032-25.16-64.264-58.352-70.664
		C144.888,359.088,152,344.376,152,328c0-30.872-25.12-56-56-56s-56,25.128-56,56c0,16.376,7.112,31.088,18.352,41.336
		C25.16,375.736,0,404.968,0,440v32C0,476.424,3.584,480,8,480z M56,328c0-22.056,17.944-40,40-40s40,17.944,40,40s-17.944,40-40,40
		S56,350.056,56,328z M16,440c0-30.872,25.12-56,56-56h48c30.88,0,56,25.128,56,56v24H16V440z"/>
	<path style="fill:#493657;" d="M421.648,369.336C432.888,359.088,440,344.376,440,328c0-30.872-25.12-56-56-56s-56,25.128-56,56
		c0,16.376,7.112,31.088,18.352,41.336C313.16,375.736,288,404.968,288,440v32c0,4.424,3.584,8,8,8h176c4.416,0,8-3.576,8-8v-32
		C480,404.968,454.84,375.736,421.648,369.336z M344,328c0-22.056,17.944-40,40-40s40,17.944,40,40s-17.944,40-40,40
		S344,350.056,344,328z M464,464H304v-24c0-30.872,25.12-56,56-56h48c30.88,0,56,25.128,56,56V464z"/>
	<path style="fill:#493657;" d="M113.912,82.544c-4.376,3.336-8.688,6.904-12.824,10.616l10.696,11.904
		c3.808-3.424,7.784-6.72,11.824-9.792L113.912,82.544z"/>
	<path style="fill:#493657;" d="M32.168,256.368c0.216,5.512,0.656,11.096,1.312,16.584l15.888-1.904
		c-0.608-5.064-1.016-10.216-1.216-15.304L32.168,256.368z"/>
	<path style="fill:#493657;" d="M127.512,73.008l8.672,13.456c4.32-2.792,8.768-5.408,13.216-7.784l-7.536-14.112
		C137.024,67.152,132.2,69.992,127.512,73.008z"/>
	<path style="fill:#493657;" d="M32.168,239.752l15.984,0.624c0.2-5.12,0.608-10.264,1.208-15.312l-15.888-1.888
		C32.824,228.632,32.376,234.208,32.168,239.752z"/>
	<path style="fill:#493657;" d="M100.776,115.792l-11.6-11.016c-3.832,4.032-7.512,8.232-10.968,12.496l12.44,10.064
		C93.832,123.4,97.24,119.512,100.776,115.792z"/>
	<path style="fill:#493657;" d="M36.088,206.744l15.688,3.16c1.008-5,2.224-10.024,3.632-14.912l-15.384-4.408
		C38.504,195.872,37.184,201.32,36.088,206.744z"/>
	<path style="fill:#493657;" d="M45.256,174.784l14.976,5.624c1.8-4.784,3.808-9.536,5.976-14.136l-14.472-6.832
		C49.384,164.44,47.208,169.592,45.256,174.784z"/>
	<path style="fill:#493657;" d="M59.424,144.696l13.88,7.952c2.528-4.416,5.28-8.792,8.168-13l-13.2-9.048
		C65.144,135.168,62.168,139.904,59.424,144.696z"/>
	<path style="fill:#493657;" d="M278.408,436.16c-4.968,1.008-10.064,1.832-15.168,2.456l1.928,15.888
		c5.52-0.672,11.04-1.568,16.416-2.656L278.408,436.16z"/>
	<path style="fill:#493657;" d="M248.584,455.824l-0.64-15.984c-5.112,0.2-10.28,0.224-15.36,0.024l-0.632,15.984
		c2.664,0.112,5.352,0.16,8.072,0.16C242.888,455.992,245.744,455.936,248.584,455.824z"/>
	<path style="fill:#493657;" d="M202.096,436.256l-3.16,15.688c5.384,1.088,10.92,1.96,16.448,2.608l1.856-15.888
		C212.16,438.064,207.056,437.256,202.096,436.256z"/>
	<path style="fill:#493657;" d="M406.72,152.696c2.536,4.424,4.92,9.008,7.096,13.616l14.472-6.832
		c-2.352-4.992-4.936-9.952-7.68-14.744L406.72,152.696z"/>
	<path style="fill:#493657;" d="M419.784,180.448c1.792,4.768,3.408,9.672,4.816,14.568l15.384-4.408
		c-1.52-5.312-3.28-10.624-5.224-15.792L419.784,180.448z"/>
	<path style="fill:#493657;" d="M389.384,127.384c3.192,3.944,6.28,8.096,9.176,12.32l13.192-9.048
		c-3.136-4.568-6.472-9.056-9.928-13.336L389.384,127.384z"/>
	<path style="fill:#493657;" d="M428.224,209.928c1.008,5.008,1.824,10.112,2.416,15.168l15.888-1.888
		c-0.648-5.472-1.528-11-2.624-16.432L428.224,209.928z"/>
	<path style="fill:#493657;" d="M368.256,105.128c3.808,3.424,7.504,7.024,11,10.704l11.616-11c-3.792-4-7.8-7.904-11.928-11.608
		L368.256,105.128z"/>
	<path style="fill:#493657;" d="M323.232,57.328l-6.408,14.656c4.664,2.04,9.304,4.296,13.808,6.712L338.2,64.6
		C333.328,61.976,328.288,59.528,323.232,57.328z"/>
	<path style="fill:#493657;" d="M366.152,82.6c-4.408-3.368-8.984-6.576-13.616-9.56l-8.664,13.456
		c4.272,2.752,8.496,5.72,12.568,8.832L366.152,82.6z"/>
	<path style="fill:#493657;" d="M447.832,256.392c0.112-2.784,0.168-5.584,0.168-8.408c0-2.744-0.056-5.488-0.168-8.208
		l-15.984,0.624c0.104,2.52,0.152,5.064,0.152,7.6c0,2.6-0.048,5.184-0.152,7.768L447.832,256.392z"/>
</g>
<g>
</g>
<g>
</g>
<g>
</g>
<g>
</g>
<g>
</g>
<g>
</g>
<g>
</g>
<g>
</g>
<g>
</g>
<g>
</g>
<g>
</g>
<g>
</g>
<g>
</g>
<g>
</g>
<g>
</g>
</svg>
